HIERARCHY
ROOT Hips
{
  OFFSET -451.732 79.7729 1287.74
  CHANNELS 6 Xposition Yposition Zposition Zrotation Xrotation Yrotation
  JOINT Spine
  {
    OFFSET 0 8 8.48073e-05
    CHANNELS 6 Xposition Yposition Zposition Zrotation Xrotation Yrotation
    JOINT Spine1
    {
      OFFSET -7.17399e-05 7.99999 4.16375e-05
      CHANNELS 6 Xposition Yposition Zposition Zrotation Xrotation Yrotation
      JOINT Spine2
      {
        OFFSET 0.000971027 8.00003 -0.000880953
        CHANNELS 6 Xposition Yposition Zposition Zrotation Xrotation Yrotation
        JOINT Spine3
        {
          OFFSET 0 8 0
          CHANNELS 6 Xposition Yposition Zposition Zrotation Xrotation Yrotation
          JOINT Neck
          {
            OFFSET -1.78459e-05 17.0002 -0.000286176
            CHANNELS 6 Xposition Yposition Zposition Zrotation Xrotation Yrotation
            JOINT Head
            {
              OFFSET 0.00125071 10.7997 -0.000368596
              CHANNELS 6 Xposition Yposition Zposition Zrotation Xrotation Yrotation
              End Site
              {
                OFFSET 0 20.25 0
              }
            }
          }
          JOINT LeftShoulder
          {
            OFFSET 5.00001 17 -3.1354e-05
            CHANNELS 6 Xposition Yposition Zposition Zrotation Xrotation Yrotation
            JOINT LeftShoulder2
            {
              OFFSET 6.45 0 0
              CHANNELS 6 Xposition Yposition Zposition Zrotation Xrotation Yrotation
              JOINT LeftArm
              {
                OFFSET 6.44998 -4.1855e-05 -5.29495e-05
                CHANNELS 6 Xposition Yposition Zposition Zrotation Xrotation Yrotation
                JOINT LeftForeArm
                {
                  OFFSET 0.00127534 -32.3999 -2.00032
                  CHANNELS 6 Xposition Yposition Zposition Zrotation Xrotation Yrotation
                  JOINT LeftHand
                  {
                    OFFSET 0 -25.6501 1.99999
                    CHANNELS 6 Xposition Yposition Zposition Zrotation Xrotation Yrotation
                    JOINT LeftHandThumb1
                    {
                      OFFSET -0.499373 -1.50143 2.65178
                      CHANNELS 6 Xposition Yposition Zposition Zrotation Xrotation Yrotation
                      JOINT LeftHandThumb2
                      {
                        OFFSET -0.000922592 -3.79643 3.70074
                        CHANNELS 6 Xposition Yposition Zposition Zrotation Xrotation Yrotation
                        JOINT LeftHandThumb3
                        {
                          OFFSET -4.38955e-05 -2.99995 2.70002
                          CHANNELS 6 Xposition Yposition Zposition Zrotation Xrotation Yrotation
                          End Site
                          {
                            OFFSET -0.000162722 -2.29987 1.80008
                          }
                        }
                      }
                    }
                    JOINT LeftHandIndex
                    {
                      OFFSET -2.04923e-05 -1.90017 1.60016
                      CHANNELS 6 Xposition Yposition Zposition Zrotation Xrotation Yrotation
                      JOINT LeftHandIndex1
                      {
                        OFFSET 0.0012149 -8.30019 1.89926
                        CHANNELS 6 Xposition Yposition Zposition Zrotation Xrotation Yrotation
                        JOINT LeftHandIndex2
                        {
                          OFFSET 0.00559188 -4.50165 -0.0011868
                          CHANNELS 6 Xposition Yposition Zposition Zrotation Xrotation Yrotation
                          JOINT LeftHandIndex3
                          {
                            OFFSET -0.000132365 -3.39976 -0.000733947
                            CHANNELS 6 Xposition Yposition Zposition Zrotation Xrotation Yrotation
                            End Site
                            {
                              OFFSET 0.000141023 -2.60026 0.000961257
                            }
                          }
                        }
                      }
                    }
                    JOINT LeftHandMiddle
                    {
                      OFFSET -0.249516 -2.20032 0.399603
                      CHANNELS 6 Xposition Yposition Zposition Zrotation Xrotation Yrotation
                      JOINT LeftHandMiddle1
                      {
                        OFFSET 0.000208517 -8.29999 1.00013
                        CHANNELS 6 Xposition Yposition Zposition Zrotation Xrotation Yrotation
                        JOINT LeftHandMiddle2
                        {
                          OFFSET 0 -4.65002 -2.81398e-05
                          CHANNELS 6 Xposition Yposition Zposition Zrotation Xrotation Yrotation
                          JOINT LeftHandMiddle3
                          {
                            OFFSET 0.000329087 -3.2996 0
                            CHANNELS 6 Xposition Yposition Zposition Zrotation Xrotation Yrotation
                            End Site
                            {
                              OFFSET 4.86988e-05 -2.70004 8.67635e-05
                            }
                          }
                        }
                      }
                    }
                    JOINT LeftHandRing
                    {
                      OFFSET -0.500534 -2.14968 -0.799792
                      CHANNELS 6 Xposition Yposition Zposition Zrotation Xrotation Yrotation
                      JOINT LeftHandRing1
                      {
                        OFFSET 0 -7.74999 -0.200128
                        CHANNELS 6 Xposition Yposition Zposition Zrotation Xrotation Yrotation
                        JOINT LeftHandRing2
                        {
                          OFFSET -0.000488318 -3.79965 -0.00102462
                          CHANNELS 6 Xposition Yposition Zposition Zrotation Xrotation Yrotation
                          JOINT LeftHandRing3
                          {
                            OFFSET -0.00150506 -3.40074 -0.00104741
                            CHANNELS 6 Xposition Yposition Zposition Zrotation Xrotation Yrotation
                            End Site
                            {
                              OFFSET 0.000110333 -2.5997 -0.000159058
                            }
                          }
                        }
                      }
                    }
                    JOINT LeftHandPinky
                    {
                      OFFSET -0.750034 -1.74994 -1.85004
                      CHANNELS 6 Xposition Yposition Zposition Zrotation Xrotation Yrotation
                      JOINT LeftHandPinky1
                      {
                        OFFSET 0 -7.15162 -0.998729
                        CHANNELS 6 Xposition Yposition Zposition Zrotation Xrotation Yrotation
                        JOINT LeftHandPinky2
                        {
                          OFFSET 0.000207607 -3.0002 -0.000495385
                          CHANNELS 6 Xposition Yposition Zposition Zrotation Xrotation Yrotation
                          JOINT LeftHandPinky3
                          {
                            OFFSET 0.000571794 -2.35086 0.0015795
                            CHANNELS 6 Xposition Yposition Zposition Zrotation Xrotation Yrotation
                            End Site
                            {
                              OFFSET 0.00160333 -2.10007 0.0025634
                            }
                          }
                        }
                      }
                    }
                  }
                }
              }
            }
          }
          JOINT RightShoulder
          {
            OFFSET -5 16.9999 -7.7602e-05
            CHANNELS 6 Xposition Yposition Zposition Zrotation Xrotation Yrotation
            JOINT RightShoulder2
            {
              OFFSET -6.45 0 0
              CHANNELS 6 Xposition Yposition Zposition Zrotation Xrotation Yrotation
              JOINT RightArm
              {
                OFFSET -6.45002 0 0
                CHANNELS 6 Xposition Yposition Zposition Zrotation Xrotation Yrotation
                JOINT RightForeArm
                {
                  OFFSET -1.63942e-05 -32.4 -1.99991
                  CHANNELS 6 Xposition Yposition Zposition Zrotation Xrotation Yrotation
                  JOINT RightHand
                  {
                    OFFSET 0 -25.6499 2
                    CHANNELS 6 Xposition Yposition Zposition Zrotation Xrotation Yrotation
                    JOINT RightHandThumb1
                    {
                      OFFSET 0.500003 -1.5001 2.65005
                      CHANNELS 6 Xposition Yposition Zposition Zrotation Xrotation Yrotation
                      JOINT RightHandThumb2
                      {
                        OFFSET 9.98434e-05 -3.80007 3.70007
                        CHANNELS 6 Xposition Yposition Zposition Zrotation Xrotation Yrotation
                        JOINT RightHandThumb3
                        {
                          OFFSET 2.68993e-05 -3.00001 2.69998
                          CHANNELS 6 Xposition Yposition Zposition Zrotation Xrotation Yrotation
                          End Site
                          {
                            OFFSET -6.19246e-05 -2.30005 1.79993
                          }
                        }
                      }
                    }
                    JOINT RightHandIndex
                    {
                      OFFSET -0.000487508 -1.90094 1.60037
                      CHANNELS 6 Xposition Yposition Zposition Zrotation Xrotation Yrotation
                      JOINT RightHandIndex1
                      {
                        OFFSET -0.000219579 -8.30004 1.90032
                        CHANNELS 6 Xposition Yposition Zposition Zrotation Xrotation Yrotation
                        JOINT RightHandIndex2
                        {
                          OFFSET 0.00106758 -4.49883 0.000237015
                          CHANNELS 6 Xposition Yposition Zposition Zrotation Xrotation Yrotation
                          JOINT RightHandIndex3
                          {
                            OFFSET -1.62511e-05 -3.3998 -0.000450447
                            CHANNELS 6 Xposition Yposition Zposition Zrotation Xrotation Yrotation
                            End Site
                            {
                              OFFSET -1.74624e-05 -2.59991 -7.19531e-05
                            }
                          }
                        }
                      }
                    }
                    JOINT RightHandMiddle
                    {
                      OFFSET 0.249943 -2.20004 0.40008
                      CHANNELS 6 Xposition Yposition Zposition Zrotation Xrotation Yrotation
                      JOINT RightHandMiddle1
                      {
                        OFFSET 5.0148e-05 -8.3001 1.00003
                        CHANNELS 6 Xposition Yposition Zposition Zrotation Xrotation Yrotation
                        JOINT RightHandMiddle2
                        {
                          OFFSET 0.00214991 -4.64735 -1.24008e-05
                          CHANNELS 6 Xposition Yposition Zposition Zrotation Xrotation Yrotation
                          JOINT RightHandMiddle3
                          {
                            OFFSET -0.000141348 -3.29994 -0.000265565
                            CHANNELS 6 Xposition Yposition Zposition Zrotation Xrotation Yrotation
                            End Site
                            {
                              OFFSET -0.00196968 -2.69989 -0.000565613
                            }
                          }
                        }
                      }
                    }
                    JOINT RightHandRing
                    {
                      OFFSET 0.50015 -2.15029 -0.799635
                      CHANNELS 6 Xposition Yposition Zposition Zrotation Xrotation Yrotation
                      JOINT RightHandRing1
                      {
                        OFFSET 5.87616e-05 -7.75001 -0.200144
                        CHANNELS 6 Xposition Yposition Zposition Zrotation Xrotation Yrotation
                        JOINT RightHandRing2
                        {
                          OFFSET -0.00180276 -3.79875 0.00100219
                          CHANNELS 6 Xposition Yposition Zposition Zrotation Xrotation Yrotation
                          JOINT RightHandRing3
                          {
                            OFFSET 0.00138442 -3.40227 -0.00108801
                            CHANNELS 6 Xposition Yposition Zposition Zrotation Xrotation Yrotation
                            End Site
                            {
                              OFFSET -3.41112e-05 -2.59984 -0.000581243
                            }
                          }
                        }
                      }
                    }
                    JOINT RightHandPinky
                    {
                      OFFSET 0.749962 -1.75002 -1.85004
                      CHANNELS 6 Xposition Yposition Zposition Zrotation Xrotation Yrotation
                      JOINT RightHandPinky1
                      {
                        OFFSET -0.000936331 -7.15105 -1.00062
                        CHANNELS 6 Xposition Yposition Zposition Zrotation Xrotation Yrotation
                        JOINT RightHandPinky2
                        {
                          OFFSET -0.000190162 -3.00212 -0.00148095
                          CHANNELS 6 Xposition Yposition Zposition Zrotation Xrotation Yrotation
                          JOINT RightHandPinky3
                          {
                            OFFSET 0.000205709 -2.35023 0.000217412
                            CHANNELS 6 Xposition Yposition Zposition Zrotation Xrotation Yrotation
                            End Site
                            {
                              OFFSET -0.000173885 -2.09971 -0.000203563
                            }
                          }
                        }
                      }
                    }
                  }
                }
              }
            }
          }
        }
      }
    }
  }
  JOINT LeftUpLeg
  {
    OFFSET 8.00003 0 0
    CHANNELS 6 Xposition Yposition Zposition Zrotation Xrotation Yrotation
    JOINT LeftLeg
    {
      OFFSET -2.98731e-05 -45 -1.00012
      CHANNELS 6 Xposition Yposition Zposition Zrotation Xrotation Yrotation
      JOINT LeftFoot
      {
        OFFSET -0.000194052 -41 -1.99979
        CHANNELS 6 Xposition Yposition Zposition Zrotation Xrotation Yrotation
        JOINT LeftToeBase
        {
          OFFSET 0.00103484 -7.50002 12.5
          CHANNELS 6 Xposition Yposition Zposition Zrotation Xrotation Yrotation
          JOINT LeftFootToe
          {
            OFFSET 0 0 4
            CHANNELS 6 Xposition Yposition Zposition Zrotation Xrotation Yrotation
            End Site
            {
              OFFSET 0 0 0
            }
          }
        }
      }
    }
  }
  JOINT RightUpLeg
  {
    OFFSET -8.00003 0 0
    CHANNELS 6 Xposition Yposition Zposition Zrotation Xrotation Yrotation
    JOINT RightLeg
    {
      OFFSET 0.000185683 -45 -1.00013
      CHANNELS 6 Xposition Yposition Zposition Zrotation Xrotation Yrotation
      JOINT RightFoot
      {
        OFFSET -0.000117803 -41 -1.99968
        CHANNELS 6 Xposition Yposition Zposition Zrotation Xrotation Yrotation
        JOINT RightToeBase
        {
          OFFSET -0.000424588 -7.50002 12.4996
          CHANNELS 6 Xposition Yposition Zposition Zrotation Xrotation Yrotation
          JOINT RightFootToe
          {
            OFFSET 0 0 4
            CHANNELS 6 Xposition Yposition Zposition Zrotation Xrotation Yrotation
            End Site
            {
              OFFSET 0 0 0
            }
          }
        }
      }
    }
  }
}
MOTION
Frames:	3
Frame Time:	0.0111111
-446.961 73.7751 1298.2 -9.06656 7.60655 -175.352 -2.27374e-13 8 0 6.52592 14.1555 -5.07762 5.68434e-14 8 2.27374e-13 0.781876 6.74852 -2.81403 0 8 0 0.349156 3.38258 -1.39449 -5.68434e-14 8 -2.27374e-13 0.348339 3.37567 -1.39132 5.68434e-14 17 -2.27374e-13 0.351926 1.35861 -2.30288 0 10.8 0 0.895575 3.12941 -5.39083 5 17 0 -1.57784 -4.84583 -9.27163 6.45 0 -2.27374e-13 -0.524331 0.0579277 0.641185 6.45 5.68434e-14 0 103.58 -8.49099 -16.7285 -1.13687e-13 -32.4 -2 -93.3601 -70.4418 -107.096 2.27374e-13 -25.65 2 -33.4695 -26.1374 -33.6886 -0.5 -1.5 2.65 -8.9948 30.7426 25.6054 -2.27374e-13 -3.8 3.7 0.304994 4.23182 -0.208438 0 -3 2.7 -0.0807316 52.5561 -0.0496752 -2.27374e-13 -1.9 1.6 6.11949e-06 -4.53946e-06 -4.84228e-07 -2.27374e-13 -8.3 1.9 -18.2135 -27.6453 -4.15209 -3.41061e-13 -4.5 0 0.00620147 0.00752054 -0.00292255 0 -3.4 1.13687e-13 0.0125674 0.00543715 -0.00280795 -0.25 -2.2 0.4 6.11949e-06 -4.53946e-06 -4.84228e-07 2.27374e-13 -8.3 1 -11.3297 -4.96707 -0.101196 0 -4.65 2.27374e-13 -75.3741 24.5163 -0.432059 1.13687e-13 -3.3 0 -89.9999 0.0013111 2.84747e-05 -0.5 -2.15 -0.8 6.11949e-06 -4.53946e-06 -4.84228e-07 0 -7.75 -0.2 -21.6502 -2.61878 0.155637 0 -3.8 1.13687e-13 -0.288395 0.0155294 -0.00531451 -1.13687e-13 -3.4 1.13687e-13 2.27879e-05 0.0110552 -0.00534532 -0.75 -1.75 -1.85 6.11949e-06 -4.53946e-06 -4.84228e-07 1.13687e-13 -7.15 -1 -25.9126 7.73738 2.90124 0 -3 2.27374e-13 -0.102684 0.0236086 -0.00410493 0 -2.35 0 0.000566851 0.0231848 -0.0110956 -5 17 0 10.0263 -2.47463 -4.65089 -6.45 1.13687e-13 0 -1.5651 -0.982657 -2.7514 -6.45 -5.68434e-14 0 -58.432 -17.7192 -24.6699 5.68434e-14 -32.4 -2 99.1744 -75.963 98.8285 -1.7053e-13 -25.65 2 -26.9149 -11.0488 -5.48377 0.5 -1.5 2.65 -34.5039 62.6517 9.85707 -1.13687e-13 -3.8 3.7 0.828696 -1.96306 -0.962171 0 -3 2.7 0.667668 68.5992 -0.539216 0 -1.9 1.6 2.73802e-06 7.75882e-06 -1.24794e-06 0 -8.3 1.9 32.2382 8.62641 -3.55868 -1.13687e-13 -4.5 -1.13687e-13 37.0071 -0.0137305 -0.0962175 -1.13687e-13 -3.4 -5.68434e-14 26.2774 -0.0301892 -0.0524441 0.25 -2.2 0.4 2.73802e-06 7.75882e-06 -1.24794e-06 -1.13687e-13 -8.3 1 33.2179 10.5494 -4.37915 -5.68434e-14 -4.65 0 89.4923 0.0869142 0.0140852 -2.27374e-13 -3.3 -1.13687e-13 87.9021 -0.0116545 0.00120404 0.5 -2.15 -0.8 2.73802e-06 7.75882e-06 -1.24794e-06 1.13687e-13 -7.75 -0.2 44.3624 8.50073 -5.68244 0 -3.8 -1.13687e-13 63.5603 0.0617694 -0.0418715 0 -3.4 5.68434e-14 45.2792 0.0103327 -0.0677831 0.75 -1.75 -1.85 2.73802e-06 7.75882e-06 -1.24794e-06 -5.68434e-14 -7.15 -1 42.7189 11.594 -6.89379 0 -3 1.13687e-13 69.2692 8.1799 0.113909 4.54747e-13 -2.35 0 51.7232 0.00485361 0.151561 8 0 0 33.0101 -43.8209 17.6389 0 -45 -1 -41.7788 42.6036 13.2311 5.68434e-14 -41 -2 6.49874 14.3801 -2.07799 2.27374e-13 -7.5 12.5 1.00225e-06 -0.000137817 0.000796248 5.68434e-14 0 4 0.961013 -0.242445 30.0168 -8 0 0 23.3092 -38.4252 0.460157 1.13687e-13 -45 -1 -79.135 26.975 52.3468 1.13687e-13 -41 -2 39.2182 11.5761 -18.9436 -1.13687e-13 -7.5 12.5 -5.21255e-08 -23.3928 -1.69178e-06 5.68434e-14 0 4 -2.31658 22.3606 23.1869 
-447.017 73.765 1298.27 -9.32449 7.84238 -175.422 -2.27374e-13 8 -2.27374e-13 6.50288 14.1577 -5.24752 0 8 2.27374e-13 0.828483 6.69945 -2.84639 -5.68434e-14 8 0 0.372278 3.35834 -1.41008 5.68434e-14 8 0 0.370791 3.35193 -1.4068 0 17 0 0.220894 1.40596 -2.2258 0 10.8 -2.27374e-13 0.589026 3.24785 -5.20646 5 17 0 -1.48484 -4.91107 -9.23488 6.45 -5.68434e-14 -2.27374e-13 -0.533026 0.0735638 0.666954 6.45 0 0 102.835 -8.77558 -17.2912 0 -32.4 -2 -92.5818 -71.2121 -106.733 1.13687e-13 -25.65 2 -32.914 -27.4758 -33.3835 -0.5 -1.5 2.65 -11.3075 31.5931 24.9737 -2.27374e-13 -3.8 3.7 0.319748 5.05071 -0.216123 0 -3 2.7 -0.15763 50.4794 -0.0220784 -2.27374e-13 -1.9 1.6 6.11949e-06 -4.53946e-06 -4.84228e-07 -2.27374e-13 -8.3 1.9 -18.2934 -27.1242 -4.11845 -3.41061e-13 -4.5 -1.13687e-13 0.0326984 0.00752054 -0.00403521 -1.13687e-13 -3.4 0 0.0383545 0.00543715 -0.00389872 -0.25 -2.2 0.4 6.11949e-06 -4.53946e-06 -4.84228e-07 1.13687e-13 -8.3 1 -11.2755 -1.33867 0.238282 -1.13687e-13 -4.65 0 -76.866 29.3142 -0.75067 1.13687e-13 -3.3 -2.27374e-13 -89.9999 0.0013111 2.84747e-05 -0.5 -2.15 -0.8 6.11949e-06 -4.53946e-06 -4.84228e-07 0 -7.75 -0.2 -25.3913 -2.4457 0.265921 1.13687e-13 -3.8 0 -0.288394 0.0155294 -0.00705804 0 -3.4 1.13687e-13 2.30849e-05 0.0110552 -0.00688472 -0.75 -1.75 -1.85 6.11949e-06 -4.53946e-06 -4.84228e-07 1.13687e-13 -7.15 -1 -31.5616 7.24813 3.62096 0 -3 -2.27374e-13 -0.102683 0.0275389 -0.00410493 0 -2.35 2.27374e-13 0.000567564 0.0268694 -0.0110956 -5 17 0 10.0314 -2.43001 -4.54544 -6.45 0 0 -1.56487 -0.998376 -2.75109 -6.45 -1.13687e-13 -4.54747e-13 -58.7111 -17.9669 -24.6543 2.84217e-14 -32.4 -2 99.949 -75.2887 99.5486 -1.13687e-13 -25.65 2 -27.033 -12.2118 -4.24219 0.5 -1.5 2.65 -28.2928 58.3057 5.26681 -2.27374e-13 -3.8 3.7 0.984502 -2.02033 -1.11403 -1.13687e-13 -3 2.7 0.829651 68.5179 -0.685459 5.68434e-14 -1.9 1.6 2.73802e-06 7.75882e-06 -1.24794e-06 0 -8.3 1.9 29.8325 7.00542 -3.82935 -1.42109e-13 -4.5 -1.7053e-13 35.7089 -0.0809604 -0.247399 -2.27374e-13 -3.4 -1.7053e-13 25.4954 -0.1026 -0.122025 0.25 -2.2 0.4 2.73802e-06 7.75882e-06 -1.24794e-06 -2.84217e-13 -8.3 1 31.5518 9.52929 -4.39597 -1.13687e-13 -4.65 5.68434e-14 89.4496 0.0888571 0.0140852 -4.54747e-13 -3.3 -1.13687e-13 87.764 -0.0116545 0.0157243 0.5 -2.15 -0.8 2.73802e-06 7.75882e-06 -1.24794e-06 5.68434e-14 -7.75 -0.2 42.7073 8.171 -5.50498 0 -3.8 -1.7053e-13 64.1478 0.0404904 -0.0281523 0 -3.4 -5.68434e-14 45.8301 0.00770471 -0.0455871 0.75 -1.75 -1.85 2.73802e-06 7.75882e-06 -1.24794e-06 -5.68434e-14 -7.15 -1 41.6637 11.6458 -6.72995 5.68434e-14 -3 1.13687e-13 68.4547 7.73371 0.0739508 2.27374e-13 -2.35 0 50.6791 0.00102887 0.0841896 8 0 -2.27374e-13 32.6299 -43.5398 17.4111 0 -45 -1 -41.7913 42.6105 13.2353 -5.68434e-14 -41 -2 6.28184 14.2594 -1.87345 1.7053e-13 -7.5 12.5 1.00225e-06 -0.000137817 0.000796248 0 0 4 1.16021 -0.234263 30.0473 -8 0 0 23.0085 -38.2192 0.490997 1.13687e-13 -45 -1 -79.1652 26.9762 52.369 1.13687e-13 -41 -2 39.1427 11.6796 -18.545 -8.52651e-14 -7.5 12.5 -5.14352e-08 -23.3714 -1.6915e-06 2.84217e-14 -1.77636e-15 4 -2.26665 22.3227 23.2179 
-447.067 73.7608 1298.33 -9.58578 8.0756 -175.5 -2.27374e-13 8 2.27374e-13 6.47734 14.1661 -5.41308 0 8 0 0.873656 6.6521 -2.87899 0 8 2.27374e-13 0.394677 3.33495 -1.42582 -5.68434e-14 8 0 0.393472 3.32856 -1.42278 5.68434e-14 17 -2.27374e-13 0.0914342 1.45299 -2.14782 5.68434e-14 10.8 2.27374e-13 0.286035 3.36536 -5.01982 5 17 -2.27374e-13 -1.40206 -4.9721 -9.19737 6.45 0 -2.27374e-13 -0.545537 0.0908538 0.699489 6.45 0 0 102.07 -9.02974 -17.8183 0 -32.4 -2 -91.7547 -71.9612 -106.31 2.27374e-13 -25.65 2 -32.2411 -28.7673 -33.0267 -0.5 -1.5 2.65 -13.6569 32.4531 24.3037 -4.54747e-13 -3.8 3.7 0.331395 5.95182 -0.220419 0 -3 2.7 -0.215287 48.2387 -0.00942204 -2.27374e-13 -1.9 1.6 6.11949e-06 -4.53946e-06 -4.84228e-07 -2.27374e-13 -8.3 1.9 -18.7165 -26.5006 -4.12858 -3.41061e-13 -4.5 0 0.0147718 0.00752054 -0.0029424 0 -3.4 0 0.0209747 0.00543715 -0.00284288 -0.25 -2.2 0.4 6.11949e-06 -4.53946e-06 -4.84228e-07 1.13687e-13 -8.3 1 -11.8183 2.17395 0.662962 1.13687e-13 -4.65 0 -78.0106 33.2855 -1.04749 9.9476e-14 -3.3 -2.27374e-13 -89.9999 0.0013111 2.84747e-05 -0.5 -2.15 -0.8 6.11949e-06 -4.53946e-06 -4.84228e-07 0 -7.75 -0.2 -29.2255 -2.19241 0.444252 0 -3.8 2.27374e-13 -0.288394 0.0155294 -0.00879948 0 -3.4 0 2.33901e-05 0.0110552 -0.00846623 -0.75 -1.75 -1.85 6.11949e-06 -4.53946e-06 -4.84228e-07 0 -7.15 -1 -37.121 6.7665 4.35384 1.13687e-13 -3 -2.27374e-13 -0.102683 0.031118 -0.00410493 1.13687e-13 -2.35 2.27374e-13 0.000568271 0.0305172 -0.0110956 -5 17 0 10.043 -2.37665 -4.42584 -6.45 5.68434e-14 2.27374e-13 -1.56457 -1.01373 -2.74706 -6.45 0 -2.27374e-13 -59.011 -18.2263 -24.6466 2.84217e-14 -32.4 -2 100.657 -74.5812 100.147 -1.7053e-13 -25.65 2 -26.9442 -12.984 -3.0145 0.5 -1.5 2.65 -23.8342 54.156 1.72362 0 -3.8 3.7 1.10169 -2.06323 -1.22864 1.13687e-13 -3 2.7 0.93705 68.3648 -0.784697 5.68434e-14 -1.9 1.6 2.73802e-06 7.75882e-06 -1.24794e-06 0 -8.3 1.9 27.5261 5.73347 -4.04418 -1.7053e-13 -4.5 -1.13687e-13 34.1659 -0.118815 -0.345623 0 -3.4 -1.13687e-13 24.5614 -0.14647 -0.168195 0.25 -2.2 0.4 2.73802e-06 7.75882e-06 -1.24794e-06 -1.7053e-13 -8.3 1 29.7725 8.70472 -4.36444 -1.42109e-13 -4.65 -5.68434e-14 89.4044 0.0907803 0.0140852 -2.27374e-13 -3.3 -1.13687e-13 87.6171 -0.0116545 0.0260402 0.5 -2.15 -0.8 2.73802e-06 7.75882e-06 -1.24794e-06 1.13687e-13 -7.75 -0.2 40.6144 7.93344 -5.2571 1.13687e-13 -3.8 -1.13687e-13 64.7053 0.0214559 -0.0167949 2.27374e-13 -3.4 -5.68434e-14 46.3577 0.00444673 -0.0259223 0.75 -1.75 -1.85 2.73802e-06 7.75882e-06 -1.24794e-06 0 -7.15 -1 39.9439 11.6947 -6.43025 5.68434e-14 -3 1.13687e-13 68.0189 7.47489 0.0439638 2.27374e-13 -2.35 0 50.137 -0.00168778 0.0329498 8 2.84217e-14 0 32.2318 -43.2575 17.1524 0 -45 -1 -41.7962 42.6138 13.243 0 -41 -2 6.0583 14.1247 -1.67648 1.7053e-13 -7.5 12.5 1.00225e-06 -0.000137817 0.000796248 1.13687e-13 0 4 1.35656 -0.23003 30.034 -8 2.84217e-14 0 22.7106 -38.0134 0.527588 1.13687e-13 -45 -1 -79.1842 26.9772 52.3904 2.27374e-13 -41 -2 39.0674 11.8005 -18.161 -1.13687e-13 -7.5 12.5 -5.22735e-08 -23.3974 -1.69183e-06 5.68434e-14 -8.88178e-16 4 -2.21687 22.4399 23.2537 
